<svg xmlns="http://www.w3.org/2000/svg" viewBox="0 0 256 256" width="256" height="256">
  <path fill="#1f1f1f" fill-rule="evenodd" d="M108 0 L114 0 L114 1 L115 1 L115 0 L141 0 L141 1 L142 1 L142 0 L148 0 L148 2 L150 2 L150 1 L153 1 L153 2 L154 2 L154 3 L155 3 L155 2 L158 2 L158 4 L159 4 L159 3 L162 3 L162 5 L163 5 L163 4 L165 4 L165 5 L168 5 L168 6 L171 6 L171 7 L174 7 L174 9 L175 9 L175 8 L176 8 L176 9 L179 9 L179 11 L180 11 L180 10 L181 10 L181 12 L182 12 L182 11 L183 11 L183 13 L184 13 L184 12 L185 12 L185 14 L186 14 L186 13 L187 13 L187 15 L188 15 L188 14 L189 14 L189 16 L190 16 L190 15 L191 15 L191 16 L193 16 L193 17 L194 17 L194 19 L195 19 L195 18 L196 18 L196 19 L197 19 L197 20 L199 20 L199 21 L200 21 L200 22 L202 22 L202 23 L203 23 L203 25 L204 25 L204 24 L205 24 L205 25 L206 25 L206 26 L207 26 L207 28 L210 28 L210 29 L211 29 L211 30 L212 30 L212 31 L213 31 L213 33 L214 33 L214 34 L215 34 L215 35 L216 35 L216 36 L219 36 L219 37 L220 37 L220 40 L221 40 L221 41 L222 41 L222 42 L223 42 L223 43 L225 43 L225 44 L226 44 L226 45 L227 45 L227 46 L228 46 L228 49 L230 49 L230 50 L231 50 L231 51 L232 51 L232 52 L231 52 L231 53 L233 53 L233 54 L234 54 L234 56 L235 56 L235 57 L236 57 L236 59 L237 59 L237 60 L238 60 L238 61 L237 61 L237 62 L239 62 L239 63 L240 63 L240 65 L241 65 L241 66 L240 66 L240 67 L242 67 L242 68 L241 68 L241 69 L243 69 L243 70 L242 70 L242 71 L244 71 L244 72 L243 72 L243 73 L245 73 L245 74 L244 74 L244 75 L246 75 L246 76 L245 76 L245 77 L247 77 L247 80 L248 80 L248 81 L247 81 L247 82 L249 82 L249 85 L250 85 L250 88 L251 88 L251 91 L252 91 L252 93 L251 93 L251 94 L253 94 L253 97 L252 97 L252 98 L254 98 L254 101 L253 101 L253 102 L254 102 L254 103 L255 103 L255 106 L254 106 L254 108 L256 108 L256 114 L255 114 L255 115 L256 115 L256 141 L255 141 L255 142 L256 142 L256 149 L254 149 L254 152 L209 152 L209 151 L167 151 L167 153 L166 153 L166 152 L165 152 L165 154 L163 154 L163 155 L162 155 L162 156 L161 156 L161 155 L160 155 L160 157 L159 157 L159 156 L158 156 L158 158 L156 158 L156 159 L155 159 L155 160 L154 160 L154 159 L153 159 L153 161 L152 161 L152 160 L151 160 L151 162 L149 162 L149 163 L148 163 L148 164 L147 164 L147 163 L146 163 L146 165 L145 165 L145 164 L144 164 L144 166 L142 166 L142 167 L141 167 L141 168 L139 168 L139 169 L138 169 L138 168 L137 168 L137 170 L135 170 L135 171 L134 171 L134 172 L132 172 L132 173 L131 173 L131 172 L130 172 L130 174 L126 174 L126 172 L125 172 L125 173 L124 173 L124 172 L122 172 L122 171 L121 171 L121 170 L119 170 L119 168 L118 168 L118 169 L117 169 L117 168 L115 168 L115 167 L114 167 L114 166 L112 166 L112 164 L111 164 L111 165 L110 165 L110 163 L109 163 L109 164 L108 164 L108 163 L107 163 L107 162 L105 162 L105 160 L104 160 L104 161 L103 161 L103 159 L102 159 L102 160 L101 160 L101 159 L100 159 L100 158 L98 158 L98 156 L97 156 L97 157 L96 157 L96 155 L95 155 L95 156 L94 156 L94 155 L93 155 L93 154 L91 154 L91 152 L90 152 L90 153 L89 153 L89 151 L87 151 L87 105 L89 105 L89 103 L90 103 L90 104 L91 104 L91 102 L93 102 L93 101 L94 101 L94 100 L95 100 L95 101 L96 101 L96 99 L97 99 L97 100 L98 100 L98 98 L100 98 L100 97 L101 97 L101 96 L102 96 L102 97 L103 97 L103 95 L104 95 L104 96 L105 96 L105 94 L107 94 L107 93 L108 93 L108 92 L110 92 L110 91 L111 91 L111 92 L112 92 L112 90 L114 90 L114 89 L115 89 L115 88 L117 88 L117 87 L118 87 L118 88 L119 88 L119 86 L121 86 L121 85 L122 85 L122 84 L124 84 L124 83 L125 83 L125 84 L126 84 L126 82 L130 82 L130 84 L131 84 L131 83 L132 83 L132 84 L134 84 L134 85 L135 85 L135 86 L137 86 L137 88 L138 88 L138 87 L139 87 L139 88 L141 88 L141 89 L142 89 L142 90 L144 90 L144 92 L145 92 L145 91 L146 91 L146 92 L148 92 L148 93 L149 93 L149 94 L151 94 L151 96 L152 96 L152 95 L153 95 L153 97 L154 97 L154 96 L155 96 L155 97 L156 97 L156 98 L158 98 L158 100 L159 100 L159 99 L160 99 L160 101 L161 101 L161 100 L162 100 L162 101 L163 101 L163 102 L165 102 L165 104 L166 104 L166 103 L167 103 L167 105 L207 105 L207 103 L206 103 L206 101 L207 101 L207 100 L205 100 L205 97 L204 97 L204 96 L205 96 L205 95 L203 95 L203 93 L202 93 L202 91 L201 91 L201 89 L200 89 L200 88 L201 88 L201 87 L199 87 L199 86 L200 86 L200 85 L198 85 L198 84 L197 84 L197 83 L198 83 L198 82 L196 82 L196 81 L195 81 L195 80 L196 80 L196 79 L194 79 L194 78 L193 78 L193 77 L192 77 L192 76 L193 76 L193 75 L191 75 L191 74 L190 74 L190 73 L189 73 L189 72 L188 72 L188 71 L187 71 L187 70 L186 70 L186 69 L185 69 L185 68 L184 68 L184 67 L183 67 L183 66 L182 66 L182 65 L181 65 L181 63 L180 63 L180 64 L179 64 L179 63 L178 63 L178 62 L177 62 L177 60 L176 60 L176 61 L175 61 L175 60 L174 60 L174 58 L173 58 L173 59 L172 59 L172 58 L171 58 L171 56 L170 56 L170 57 L169 57 L169 55 L168 55 L168 56 L167 56 L167 55 L165 55 L165 54 L163 54 L163 52 L162 52 L162 53 L161 53 L161 51 L160 51 L160 52 L159 52 L159 51 L156 51 L156 50 L153 50 L153 49 L149 49 L149 47 L148 47 L148 48 L145 48 L145 47 L144 47 L144 46 L143 46 L143 47 L139 47 L139 46 L138 46 L138 45 L136 45 L136 46 L119 46 L119 45 L118 45 L118 46 L117 46 L117 47 L113 47 L113 46 L111 46 L111 48 L108 48 L108 47 L107 47 L107 49 L103 49 L103 50 L100 50 L100 51 L97 51 L97 52 L96 52 L96 51 L95 51 L95 53 L94 53 L94 52 L93 52 L93 54 L91 54 L91 55 L89 55 L89 56 L88 56 L88 55 L87 55 L87 57 L86 57 L86 56 L85 56 L85 58 L84 58 L84 59 L83 59 L83 58 L82 58 L82 60 L81 60 L81 61 L80 61 L80 60 L79 60 L79 62 L78 62 L78 63 L77 63 L77 64 L76 64 L76 63 L75 63 L75 65 L74 65 L74 66 L73 66 L73 67 L72 67 L72 68 L71 68 L71 69 L70 69 L70 70 L69 70 L69 71 L68 71 L68 72 L67 72 L67 73 L66 73 L66 74 L65 74 L65 75 L63 75 L63 76 L64 76 L64 77 L63 77 L63 78 L62 78 L62 79 L60 79 L60 80 L61 80 L61 81 L60 81 L60 82 L58 82 L58 83 L59 83 L59 84 L58 84 L58 85 L56 85 L56 86 L57 86 L57 87 L55 87 L55 88 L56 88 L56 89 L55 89 L55 91 L54 91 L54 93 L52 93 L52 94 L53 94 L53 95 L51 95 L51 96 L52 96 L52 97 L51 97 L51 100 L50 100 L50 103 L49 103 L49 107 L47 107 L47 108 L48 108 L48 111 L46 111 L46 113 L47 113 L47 117 L46 117 L46 118 L45 118 L45 119 L46 119 L46 137 L45 137 L45 138 L46 138 L46 139 L47 139 L47 143 L46 143 L46 145 L48 145 L48 148 L47 148 L47 149 L49 149 L49 153 L50 153 L50 156 L51 156 L51 159 L52 159 L52 160 L51 160 L51 161 L53 161 L53 162 L52 162 L52 163 L54 163 L54 165 L55 165 L55 167 L56 167 L56 168 L55 168 L55 169 L57 169 L57 170 L56 170 L56 171 L58 171 L58 172 L59 172 L59 173 L58 173 L58 174 L60 174 L60 175 L61 175 L61 176 L60 176 L60 177 L62 177 L62 178 L63 178 L63 179 L64 179 L64 180 L63 180 L63 181 L65 181 L65 182 L66 182 L66 183 L67 183 L67 184 L68 184 L68 185 L69 185 L69 186 L70 186 L70 187 L71 187 L71 188 L72 188 L72 189 L73 189 L73 190 L74 190 L74 191 L75 191 L75 193 L76 193 L76 192 L77 192 L77 193 L78 193 L78 194 L79 194 L79 196 L80 196 L80 195 L81 195 L81 196 L82 196 L82 198 L83 198 L83 197 L84 197 L84 198 L85 198 L85 200 L86 200 L86 199 L87 199 L87 201 L88 201 L88 200 L89 200 L89 201 L91 201 L91 202 L93 202 L93 204 L94 204 L94 203 L95 203 L95 205 L96 205 L96 204 L97 204 L97 205 L100 205 L100 206 L103 206 L103 207 L107 207 L107 209 L108 209 L108 208 L111 208 L111 210 L113 210 L113 209 L117 209 L117 210 L118 210 L118 211 L119 211 L119 210 L137 210 L137 211 L138 211 L138 210 L139 210 L139 209 L143 209 L143 210 L144 210 L144 209 L145 209 L145 208 L148 208 L148 209 L149 209 L149 207 L153 207 L153 206 L155 206 L155 207 L156 207 L156 205 L159 205 L159 204 L160 204 L160 205 L161 205 L161 203 L163 203 L163 202 L165 202 L165 201 L167 201 L167 200 L168 200 L168 201 L169 201 L169 199 L170 199 L170 200 L171 200 L171 198 L172 198 L172 197 L173 197 L173 198 L174 198 L174 196 L175 196 L175 195 L176 195 L176 196 L177 196 L177 194 L178 194 L178 193 L179 193 L179 192 L180 192 L180 193 L181 193 L181 191 L182 191 L182 190 L183 190 L183 189 L184 189 L184 188 L185 188 L185 187 L186 187 L186 186 L187 186 L187 185 L188 185 L188 184 L189 184 L189 183 L190 183 L190 182 L191 182 L191 181 L193 181 L193 180 L192 180 L192 179 L193 179 L193 178 L194 178 L194 177 L196 177 L196 176 L195 176 L195 175 L196 175 L196 174 L198 174 L198 173 L197 173 L197 172 L198 172 L198 171 L200 171 L200 169 L249 169 L249 171 L250 171 L250 173 L249 173 L249 175 L247 175 L247 176 L248 176 L248 177 L246 177 L246 178 L247 178 L247 179 L245 179 L245 180 L246 180 L246 181 L244 181 L244 182 L245 182 L245 183 L243 183 L243 184 L244 184 L244 185 L242 185 L242 186 L243 186 L243 187 L241 187 L241 188 L242 188 L242 189 L240 189 L240 190 L241 190 L241 191 L240 191 L240 193 L239 193 L239 194 L237 194 L237 195 L238 195 L238 196 L237 196 L237 197 L236 197 L236 199 L235 199 L235 200 L234 200 L234 202 L233 202 L233 203 L231 203 L231 204 L232 204 L232 205 L231 205 L231 206 L230 206 L230 207 L228 207 L228 210 L227 210 L227 211 L226 211 L226 212 L225 212 L225 213 L223 213 L223 214 L222 214 L222 215 L221 215 L221 216 L222 216 L222 217 L221 217 L221 218 L220 218 L220 219 L219 219 L219 220 L218 220 L218 221 L215 221 L215 222 L214 222 L214 223 L213 223 L213 225 L212 225 L212 226 L211 226 L211 227 L210 227 L210 228 L207 228 L207 230 L206 230 L206 231 L205 231 L205 232 L204 232 L204 231 L203 231 L203 233 L202 233 L202 234 L200 234 L200 235 L199 235 L199 236 L197 236 L197 237 L196 237 L196 238 L195 238 L195 237 L194 237 L194 239 L193 239 L193 240 L191 240 L191 241 L190 241 L190 240 L189 240 L189 242 L188 242 L188 241 L187 241 L187 243 L186 243 L186 242 L185 242 L185 244 L184 244 L184 243 L183 243 L183 245 L182 245 L182 244 L181 244 L181 246 L179 246 L179 247 L176 247 L176 248 L175 248 L175 247 L174 247 L174 249 L171 249 L171 250 L168 250 L168 251 L165 251 L165 252 L163 252 L163 251 L162 251 L162 253 L159 253 L159 252 L158 252 L158 254 L155 254 L155 253 L154 253 L154 254 L153 254 L153 255 L150 255 L150 254 L148 254 L148 256 L142 256 L142 255 L141 255 L141 256 L115 256 L115 255 L114 255 L114 256 L108 256 L108 254 L106 254 L106 255 L103 255 L103 254 L102 254 L102 253 L101 253 L101 254 L98 254 L98 252 L97 252 L97 253 L94 253 L94 251 L93 251 L93 252 L91 252 L91 251 L88 251 L88 250 L85 250 L85 249 L82 249 L82 247 L81 247 L81 248 L80 248 L80 247 L77 247 L77 245 L76 245 L76 246 L75 246 L75 244 L74 244 L74 245 L73 245 L73 243 L72 243 L72 244 L71 244 L71 242 L70 242 L70 243 L69 243 L69 241 L68 241 L68 242 L67 242 L67 240 L66 240 L66 241 L65 241 L65 240 L63 240 L63 239 L62 239 L62 237 L61 237 L61 238 L60 238 L60 237 L59 237 L59 236 L57 236 L57 235 L56 235 L56 234 L54 234 L54 233 L53 233 L53 231 L52 231 L52 232 L51 232 L51 231 L50 231 L50 230 L49 230 L49 228 L46 228 L46 227 L45 227 L45 226 L44 226 L44 225 L43 225 L43 223 L42 223 L42 222 L41 222 L41 221 L40 221 L40 220 L37 220 L37 219 L36 219 L36 216 L35 216 L35 215 L34 215 L34 214 L33 214 L33 213 L31 213 L31 212 L30 212 L30 211 L29 211 L29 210 L28 210 L28 207 L26 207 L26 206 L25 206 L25 205 L24 205 L24 204 L25 204 L25 203 L23 203 L23 202 L22 202 L22 200 L21 200 L21 199 L20 199 L20 197 L19 197 L19 196 L18 196 L18 195 L19 195 L19 194 L17 194 L17 193 L16 193 L16 191 L15 191 L15 190 L16 190 L16 189 L14 189 L14 188 L15 188 L15 187 L13 187 L13 186 L14 186 L14 185 L12 185 L12 184 L13 184 L13 183 L11 183 L11 182 L12 182 L12 181 L10 181 L10 180 L11 180 L11 179 L9 179 L9 176 L8 176 L8 175 L9 175 L9 174 L7 174 L7 171 L6 171 L6 168 L5 168 L5 165 L4 165 L4 163 L5 163 L5 162 L3 162 L3 159 L4 159 L4 158 L2 158 L2 155 L3 155 L3 154 L2 154 L2 153 L1 153 L1 150 L2 150 L2 148 L0 148 L0 142 L1 142 L1 141 L0 141 L0 115 L1 115 L1 114 L0 114 L0 108 L2 108 L2 106 L1 106 L1 103 L2 103 L2 102 L3 102 L3 101 L2 101 L2 98 L4 98 L4 97 L3 97 L3 94 L5 94 L5 93 L4 93 L4 91 L5 91 L5 88 L6 88 L6 85 L7 85 L7 82 L9 82 L9 81 L8 81 L8 80 L9 80 L9 77 L11 77 L11 76 L10 76 L10 75 L12 75 L12 74 L11 74 L11 73 L13 73 L13 72 L12 72 L12 71 L14 71 L14 70 L13 70 L13 69 L15 69 L15 68 L14 68 L14 67 L16 67 L16 66 L15 66 L15 65 L16 65 L16 63 L17 63 L17 62 L19 62 L19 61 L18 61 L18 60 L19 60 L19 59 L20 59 L20 57 L21 57 L21 56 L22 56 L22 54 L23 54 L23 53 L25 53 L25 52 L24 52 L24 51 L25 51 L25 50 L26 50 L26 49 L28 49 L28 46 L29 46 L29 45 L30 45 L30 44 L31 44 L31 43 L33 43 L33 42 L34 42 L34 41 L35 41 L35 40 L36 40 L36 37 L37 37 L37 36 L40 36 L40 35 L41 35 L41 34 L42 34 L42 33 L43 33 L43 31 L44 31 L44 30 L45 30 L45 29 L46 29 L46 28 L49 28 L49 26 L50 26 L50 25 L51 25 L51 24 L52 24 L52 25 L53 25 L53 23 L54 23 L54 22 L56 22 L56 21 L57 21 L57 20 L59 20 L59 19 L60 19 L60 18 L61 18 L61 19 L62 19 L62 17 L63 17 L63 16 L65 16 L65 15 L66 15 L66 16 L67 16 L67 14 L68 14 L68 15 L69 15 L69 13 L70 13 L70 14 L71 14 L71 12 L72 12 L72 13 L73 13 L73 11 L74 11 L74 12 L75 12 L75 10 L76 10 L76 11 L77 11 L77 9 L80 9 L80 8 L81 8 L81 9 L82 9 L82 7 L85 7 L85 6 L88 6 L88 5 L91 5 L91 4 L93 4 L93 5 L94 5 L94 3 L97 3 L97 4 L98 4 L98 2 L101 2 L101 3 L102 3 L102 2 L103 2 L103 1 L106 1 L106 2 L108 2 Z M129 106 L128 106 L128 108 L127 108 L127 107 L126 107 L126 109 L124 109 L124 110 L123 110 L123 111 L121 111 L121 112 L120 112 L120 111 L119 111 L119 113 L117 113 L117 114 L116 114 L116 115 L114 115 L114 116 L113 116 L113 115 L112 115 L112 117 L110 117 L110 140 L112 140 L112 142 L113 142 L113 141 L114 141 L114 143 L115 143 L115 142 L116 142 L116 143 L118 143 L118 144 L119 144 L119 145 L121 145 L121 147 L122 147 L122 146 L123 146 L123 147 L125 147 L125 148 L126 148 L126 149 L128 149 L128 150 L129 150 L129 149 L131 149 L131 148 L132 148 L132 147 L134 147 L134 146 L135 146 L135 147 L136 147 L136 145 L138 145 L138 144 L139 144 L139 143 L141 143 L141 142 L142 142 L142 143 L143 143 L143 141 L145 141 L145 140 L147 140 L147 117 L145 117 L145 115 L144 115 L144 116 L143 116 L143 114 L142 114 L142 115 L141 115 L141 114 L139 114 L139 113 L138 113 L138 111 L137 111 L137 112 L136 112 L136 110 L135 110 L135 111 L134 111 L134 110 L132 110 L132 109 L131 109 L131 107 L130 107 L130 108 L129 108 Z"/>
</svg>
